<svg width="194" height="71" viewBox="0 0 194 71" fill="none" xmlns="http://www.w3.org/2000/svg">
<g clip-path="url(#clip0)">
<path d="M106.15 53.5136H103.445L86.7043 18.9595H91.3933L104.797 46.6563L118.206 18.9595H122.988L106.15 53.5136Z" fill="#F4F4F4"/>
<path d="M62.8309 22.9366H52.2564V49.5364H62.8309C67.1105 49.5364 70.4781 48.3425 72.9337 45.9508C75.3892 43.5629 76.6131 40.3339 76.6131 36.2637C76.6131 32.2594 75.3658 29.0342 72.8674 26.5921C70.3729 24.1538 67.0248 22.9366 62.8309 22.9366ZM62.8309 18.9595C68.3071 18.9595 72.7193 20.5643 76.0635 23.7778C79.4078 26.9914 81.0838 31.174 81.0838 36.3296C81.0838 41.5239 79.435 45.6872 76.1454 48.8154C72.8518 51.9437 68.4124 53.5097 62.8348 53.5097H47.9495V18.9595H62.8309Z" fill="#F4F4F4"/>
<path d="M11.202 40.1789H26.4965L18.8181 24.8749L11.202 40.1789ZM0 53.5137L17.0251 18.9634H20.611L37.8232 53.5137H33.1382L28.4181 44.2181H9.22195L4.62656 53.5137H0Z" fill="#F4F4F4"/>
<path d="M130.6 11.606L142.562 3.1748L132.635 18.8664L130.6 11.606Z" fill="#E64B22"/>
<path d="M148.553 16.122L142.562 3.1748L132.635 18.8664L148.553 16.122Z" fill="#EB5A2E"/>
<path d="M158.73 0L148.553 16.1219L142.562 3.17477L158.73 0Z" fill="#EC6643"/>
<path d="M123.319 24.8671L132.635 18.8664L130.6 11.606L123.319 24.8671Z" fill="#EB5A2E"/>
<path d="M172.914 3.16699L168.158 16.0676L177.088 19.0524L172.914 3.16699Z" fill="#E64B22"/>
<path d="M158.73 0L172.913 3.16701L168.158 16.0676L158.73 0Z" fill="#EC6643"/>
<path d="M172.914 3.16699L184.883 11.7842L177.088 19.0524L172.914 3.16699Z" fill="#EB5A2E"/>
<path d="M121.713 39.6246L132.635 47.3154L123.319 24.8672L121.713 39.6246Z" fill="#EB5A2E"/>
<path d="M184.704 37.5776L189.038 53.7848L194 40.0934L184.704 37.5776Z" fill="#EC6643"/>
<path d="M192.41 24.9873L184.704 37.5778L194 40.0936L192.41 24.9873Z" fill="#E64B22"/>
<path d="M165.66 70.8722L159.915 56.3047L170.326 64.228L165.66 70.8722Z" fill="#EB5A2E"/>
<path d="M175.79 57.2197L170.325 64.2282L178.893 65.0113L175.79 57.2197Z" fill="#EB5A2E"/>
<path d="M165.66 70.8722L178.893 65.0111L170.325 64.228L165.66 70.8722Z" fill="#E64B22"/>
<path d="M159.915 56.3047L175.79 57.2195L170.326 64.228L159.915 56.3047Z" fill="#EC6643"/>
<path d="M178.893 65.0107L189.038 53.7847L175.79 57.2192L178.893 65.0107Z" fill="#E64B22"/>
<path d="M165.66 70.8722L149.937 71.0001L159.915 56.3047L165.66 70.8722Z" fill="#EE7459"/>
<path d="M136.408 64.9257L145.107 61.2974L149.937 71L136.408 64.9257Z" fill="#E64B22"/>
<path d="M159.915 56.3047L145.107 61.2975L149.937 71.0001L159.915 56.3047Z" fill="#EC6643"/>
<path d="M121.713 39.6245L132.635 47.3153L126.278 53.6067L121.713 39.6245Z" fill="#E64B22"/>
<path d="M158.73 0L163.505 8.13655L148.553 16.1219L158.73 0Z" fill="#EE7459"/>
<path d="M148.553 16.1221L137.008 18.8666H132.635L148.553 16.1221Z" fill="#E64B22"/>
<path d="M137.008 35.4226L148.553 16.1221L137.008 18.8666V35.4226Z" fill="#EB5A2E"/>
<path d="M126.278 53.6064L136.408 64.9255L132.635 53.6064H126.278Z" fill="#EB5A2E"/>
<path d="M132.635 47.3154V53.6068H126.278L132.635 47.3154Z" fill="#EE7459"/>
<path d="M132.635 18.8662L123.319 24.8669L132.635 47.3151V18.8662Z" fill="#E64B22"/>
<path d="M148.553 16.1221L152.291 19.0526L137.008 35.4226L148.553 16.1221Z" fill="#E64B22"/>
<path d="M154.555 19.0526L148.553 16.1221L152.291 19.0526H154.555Z" fill="#EB5A2E"/>
<path d="M163.505 8.13672L154.555 19.0526L148.553 16.1221L163.505 8.13672Z" fill="#EC6643"/>
<path d="M152.291 19.0527L137.008 35.4227L152.291 53.6069V19.0527Z" fill="#EB5A2E"/>
<path d="M156.602 27.7861V53.6068L166.233 38.7757L156.602 27.7861Z" fill="#EE7459"/>
<path d="M168.158 16.0674L177.088 44.8728V19.0522L168.158 16.0674Z" fill="#EC6643"/>
<path d="M154.555 19.0522L177.088 44.8728L168.158 16.0674L154.555 19.0522Z" fill="#E64B22"/>
<path d="M184.883 11.7842L181.43 19.0524H177.088L184.883 11.7842Z" fill="#EC6643"/>
<path d="M192.41 24.9872L181.43 19.0524L184.883 11.7842L192.41 24.9872Z" fill="#EB5A2E"/>
<path d="M184.704 37.578L181.43 19.0527L192.41 24.9875L184.704 37.578Z" fill="#EC6643"/>
<path d="M189.038 53.7848L181.43 53.6065L184.704 37.5776L189.038 53.7848Z" fill="#E64B22"/>
<path d="M175.79 57.2192L181.43 53.6064L189.038 53.7848L175.79 57.2192Z" fill="#EC6643"/>
<path d="M184.704 37.578L181.43 19.0527V53.6069L184.704 37.578Z" fill="#EB5A2E"/>
<path d="M166.233 38.7754L179.228 53.6065L175.79 57.2193L166.233 38.7754Z" fill="#EC6643"/>
<path d="M156.602 53.6065L159.915 56.3044L166.233 38.7754L156.602 53.6065Z" fill="#EB5A2E"/>
<path d="M175.79 57.2193L159.915 56.3044L166.233 38.7754L175.79 57.2193Z" fill="#E64B22"/>
<path d="M181.43 53.6064H179.228L175.79 57.2192L181.43 53.6064Z" fill="#EC6643"/>
<path d="M137.008 53.6064L136.408 64.9255L132.635 53.6064H137.008Z" fill="#E64B22"/>
<path d="M145.107 61.2972L136.408 64.9255L137.008 53.6064L145.107 61.2972Z" fill="#EC6643"/>
<path d="M152.291 53.6064L145.107 61.2972L137.008 53.6064H152.291Z" fill="#EB5A2E"/>
<path d="M156.602 53.6064L145.107 61.2972L159.915 56.3044L156.602 53.6064Z" fill="#E64B22"/>
<path d="M152.291 53.6064H156.602L145.107 61.2972L152.291 53.6064Z" fill="#EC6643"/>
<path d="M137.008 35.4224V53.6065H152.291L137.008 35.4224Z" fill="#EC6643"/>
<path d="M168.158 16.0678L154.555 19.0526L163.505 8.13672L168.158 16.0678Z" fill="#EB5A2E"/>
</g>
<defs>
<clipPath id="clip0">
<rect width="194" height="71" fill="white"/>
</clipPath>
</defs>
</svg>
