<?xml version="1.0" encoding="UTF-8"?>
<svg id="_Слой_1" data-name="Слой_1" xmlns="http://www.w3.org/2000/svg" version="1.1" viewBox="0 0 199 71">
  <!-- Generator: Adobe Illustrator 29.5.1, SVG Export Plug-In . SVG Version: 2.1.0 Build 141)  -->
  <defs>
    <style>
      .st0 {
        fill: #eb5a2e;
      }

      .st1 {
        fill: #212121;
      }

      .st2 {
        fill: #ec6643;
      }

      .st3 {
        fill: #e64b22;
      }

      .st4 {
        fill: #ee7459;
      }
    </style>
  </defs>
  <path class="st1" d="M106.15,53.51h-2.71l-16.74-34.55h4.69l13.4,27.7,13.41-27.7h4.78l-16.84,34.55Z"/>
  <path class="st1" d="M62.83,22.94h-10.57v26.6h10.57c4.28,0,7.65-1.19,10.1-3.59,2.46-2.39,3.68-5.62,3.68-9.69s-1.25-7.23-3.75-9.67c-2.49-2.44-5.84-3.66-10.04-3.66ZM62.83,18.96c5.48,0,9.89,1.6,13.23,4.82,3.34,3.21,5.02,7.4,5.02,12.55s-1.65,9.36-4.94,12.49c-3.29,3.13-7.73,4.69-13.31,4.69h-14.89V18.96h14.88Z"/>
  <path class="st1" d="M11.2,40.18h15.29l-7.68-15.3-7.62,15.3ZM0,53.51L17.03,18.96h3.59l17.21,34.55h-4.69l-4.72-9.3H9.22l-4.6,9.3H0Z"/>
  <path class="st3" d="M135.6,11.61l11.96-8.43-9.93,15.69-2.03-7.26Z"/>
  <path class="st0" d="M153.55,16.12l-5.99-12.95-9.93,15.69,15.92-2.74Z"/>
  <path class="st2" d="M163.73,0l-10.18,16.12-5.99-12.95L163.73,0Z"/>
  <path class="st0" d="M128.32,24.87l9.32-6-2.03-7.26-7.28,13.26Z"/>
  <path class="st3" d="M177.91,3.17l-4.76,12.9,8.93,2.98-4.17-15.89Z"/>
  <path class="st2" d="M163.73,0l14.18,3.17-4.75,12.9L163.73,0Z"/>
  <path class="st0" d="M177.91,3.17l11.97,8.62-7.79,7.27-4.17-15.89Z"/>
  <path class="st0" d="M126.71,39.62l10.92,7.69-9.32-22.45-1.61,14.76Z"/>
  <path class="st2" d="M189.7,37.58l4.33,16.21,4.96-13.69-9.3-2.52Z"/>
  <path class="st3" d="M197.41,24.99l-7.71,12.59,9.3,2.52-1.59-15.11Z"/>
  <path class="st0" d="M170.66,70.87l-5.75-14.57,10.41,7.92-4.67,6.64Z"/>
  <path class="st0" d="M180.79,57.22l-5.46,7.01,8.57.78-3.1-7.79Z"/>
  <path class="st3" d="M170.66,70.87l13.23-5.86-8.57-.78-4.66,6.64Z"/>
  <path class="st2" d="M164.92,56.3l15.88.91-5.46,7.01-10.41-7.92Z"/>
  <path class="st3" d="M183.89,65.01l10.14-11.23-13.25,3.43,3.1,7.79Z"/>
  <path class="st4" d="M170.66,70.87l-15.72.13,9.98-14.7,5.75,14.57Z"/>
  <path class="st3" d="M141.41,64.93l8.7-3.63,4.83,9.7-13.53-6.07Z"/>
  <path class="st2" d="M164.92,56.3l-14.81,4.99,4.83,9.7,9.98-14.7Z"/>
  <path class="st3" d="M126.71,39.62l10.92,7.69-6.36,6.29-4.57-13.98Z"/>
  <path class="st4" d="M163.73,0l4.78,8.14-14.95,7.99L163.73,0Z"/>
  <path class="st3" d="M153.55,16.12l-11.54,2.74h-4.37l15.92-2.74Z"/>
  <path class="st0" d="M142.01,35.42l11.54-19.3-11.54,2.74v16.56Z"/>
  <path class="st0" d="M131.28,53.61l10.13,11.32-3.77-11.32h-6.36Z"/>
  <path class="st4" d="M137.64,47.32v6.29h-6.36l6.36-6.29Z"/>
  <path class="st3" d="M137.64,18.87l-9.32,6,9.32,22.45v-28.45Z"/>
  <path class="st3" d="M153.55,16.12l3.74,2.93-15.28,16.37,11.54-19.3Z"/>
  <path class="st0" d="M159.56,19.05l-6-2.93,3.74,2.93h2.26Z"/>
  <path class="st2" d="M168.51,8.14l-8.95,10.92-6-2.93,14.95-7.99Z"/>
  <path class="st0" d="M157.29,19.05l-15.28,16.37,15.28,18.18V19.05Z"/>
  <path class="st4" d="M161.6,27.79v25.82l9.63-14.83-9.63-10.99Z"/>
  <path class="st2" d="M173.16,16.07l8.93,28.81v-25.82l-8.93-2.98Z"/>
  <path class="st3" d="M159.56,19.05l22.53,25.82-8.93-28.81-13.6,2.98Z"/>
  <path class="st2" d="M189.88,11.78l-3.45,7.27h-4.34l7.79-7.27Z"/>
  <path class="st0" d="M197.41,24.99l-10.98-5.93,3.45-7.27,7.53,13.2Z"/>
  <path class="st2" d="M189.7,37.58l-3.27-18.53,10.98,5.93-7.71,12.59Z"/>
  <path class="st3" d="M194.04,53.78l-7.61-.18,3.27-16.03,4.33,16.21Z"/>
  <path class="st2" d="M180.79,57.22l5.64-3.61,7.61.18-13.25,3.43Z"/>
  <path class="st0" d="M189.7,37.58l-3.27-18.53v34.55l3.27-16.03Z"/>
  <path class="st2" d="M171.23,38.78l12.99,14.83-3.44,3.61-9.56-18.44Z"/>
  <path class="st0" d="M161.6,53.61l3.31,2.7,6.32-17.53-9.63,14.83Z"/>
  <path class="st3" d="M180.79,57.22l-15.88-.91,6.32-17.53,9.56,18.44Z"/>
  <path class="st2" d="M186.43,53.61h-2.2l-3.44,3.61,5.64-3.61Z"/>
  <path class="st3" d="M142.01,53.61l-.6,11.32-3.77-11.32h4.37Z"/>
  <path class="st2" d="M150.11,61.3l-8.7,3.63.6-11.32,8.1,7.69Z"/>
  <path class="st0" d="M157.29,53.61l-7.18,7.69-8.1-7.69h15.28Z"/>
  <path class="st3" d="M161.6,53.61l-11.5,7.69,14.81-4.99-3.31-2.7Z"/>
  <path class="st2" d="M157.29,53.61h4.31l-11.5,7.69,7.18-7.69Z"/>
  <path class="st2" d="M142.01,35.42v18.18h15.28l-15.28-18.18Z"/>
  <path class="st0" d="M173.16,16.07l-13.6,2.98,8.95-10.92,4.65,7.93Z"/>
</svg>